<svg width="72" height="72" viewBox="0 0 72 72" fill="none" xmlns="http://www.w3.org/2000/svg">
<path d="M59.935 63.58V7.59818C59.935 4.51917 57.3416 2 54.1721 2H10.7629C7.57887 2 5 4.51917 5 7.59818V63.58C5 66.673 7.57887 69.1782 10.7629 69.1782H54.1721C57.3416 69.1782 59.935 66.673 59.935 63.58ZM18.903 19.6202L31.5815 10.0334C32.1001 9.64147 32.8349 9.64147 33.3535 10.0334L46.0319 19.6202C46.5074 19.9981 46.7091 20.6139 46.5074 21.1877C46.3057 21.7476 45.7582 22.1255 45.1387 22.1255H43.4098V37.2825H44.1446C44.937 37.2825 45.5853 37.9123 45.5853 38.682C45.5853 39.4519 44.937 40.0816 44.1446 40.0816H36.0333C36.0333 40.0816 36.0333 40.0816 36.0188 40.0816H20.776C19.9835 40.0816 19.3353 39.4519 19.3353 38.682C19.3353 37.9123 19.9835 37.2825 20.776 37.2825H21.5107V22.1255H19.7819C19.1623 22.1255 18.6149 21.7476 18.4276 21.1877C18.2259 20.6139 18.4132 19.9981 18.903 19.6202ZM49.1727 61.4527H15.7622C14.9554 61.4527 14.3215 60.8229 14.3215 60.0531C14.3215 59.2834 14.9554 58.6536 15.7622 58.6536H49.1727C49.9651 58.6536 50.6134 59.2834 50.6134 60.0531C50.6134 60.8229 49.9651 61.4527 49.1727 61.4527ZM49.1727 55.0988H15.7622C14.9554 55.0988 14.3215 54.469 14.3215 53.6992C14.3215 52.9155 14.9554 52.2997 15.7622 52.2997H49.1727C49.9651 52.2997 50.6134 52.9155 50.6134 53.6992C50.6134 54.469 49.9651 55.0988 49.1727 55.0988ZM49.1727 48.7309H15.7622C14.9554 48.7309 14.3215 48.1151 14.3215 47.3313C14.3215 46.5615 14.9554 45.9318 15.7622 45.9318H49.1727C49.9651 45.9318 50.6134 46.5615 50.6134 47.3313C50.6134 48.1151 49.9651 48.7309 49.1727 48.7309Z" fill="#71B02D"/>
<path d="M32.5001 30C30.5715 30 29 30.9124 29 32.0156V37H36V32.0156C36 30.9124 34.4286 30 32.5001 30Z" fill="#71B02D"/>
<path d="M27.233 32.2687C27.233 29.7867 29.6009 27.7701 32.5 27.7701C35.3991 27.7701 37.767 29.7867 37.767 32.2687V37H41V23H24V37H27.233V32.2687Z" fill="#71B02D"/>
</svg>
