<svg width="64" height="64" viewBox="0 0 64 64" fill="none" xmlns="http://www.w3.org/2000/svg">
<path d="M37.0526 0V25.6H64C64 11.456 51.9411 0 37.0526 0ZM58.3411 44.448C61.8779 40.128 64 34.688 64 28.8H14.9558L11.7558 22.4H0V28.8H7.47789C7.47789 28.8 13.8442 41.824 14.6189 42.944C10.9137 44.832 8.42105 48.544 8.42105 52.8C8.42105 58.976 13.7095 64 20.2105 64C26.1389 64 31.0568 59.84 31.8653 54.4H38.8716C39.68 59.84 44.5979 64 50.5263 64C57.0274 64 62.3158 58.976 62.3158 52.8C62.3158 49.472 60.7663 46.496 58.3411 44.448ZM20.2105 57.6C17.4147 57.6 15.1579 55.456 15.1579 52.8C15.1579 50.144 17.4147 48 20.2105 48C23.0063 48 25.2632 50.144 25.2632 52.8C25.2632 55.456 23.0063 57.6 20.2105 57.6ZM50.5263 57.6C47.7305 57.6 45.4737 55.456 45.4737 52.8C45.4737 50.144 47.7305 48 50.5263 48C53.3221 48 55.5789 50.144 55.5789 52.8C55.5789 55.456 53.3221 57.6 50.5263 57.6Z" fill="#71B02D"/>
</svg>
