<svg id="Слой_1" data-name="Слой 1" xmlns="http://www.w3.org/2000/svg" xmlns:xlink="http://www.w3.org/1999/xlink" viewBox="0 0 155 45"><defs><style>.cls-1{fill:url(#Безымянный_градиент_19);}.cls-2{fill:#ece851;}.cls-3{fill:#fff;}.cls-4{fill:#7eac5c;}.cls-5{fill:#4d4f51;}</style><linearGradient id="Безымянный_градиент_19" x1="8.18" y1="10.74" x2="39.71" y2="34.26" gradientUnits="userSpaceOnUse"><stop offset="0" stop-color="#89bd5d"/><stop offset="1" stop-color="#78a652"/></linearGradient></defs><title>desktop_1</title><path class="cls-1" d="M43.61,22.5A19.67,19.67,0,0,1,4.39,24.6a20.79,20.79,0,0,1-.11-2.1,19.67,19.67,0,1,1,39.33,0Z"/><path class="cls-2" d="M24,35.23a7.65,7.65,0,0,1-7.64-7.64h3.13a4.51,4.51,0,0,0,9,0h3.14A7.65,7.65,0,0,1,24,35.23Z"/><polygon class="cls-3" points="34.99 20.16 34.99 12.07 31.36 12.07 31.36 16.47 26.51 11.63 26.52 11.62 26.54 11.6 23.97 9.04 23.96 9.05 23.95 9.06 23.94 9.05 23.92 9.04 21.36 11.6 21.37 11.62 21.38 11.63 14.26 18.75 10.1 23.07 12.67 25.64 16.28 21.86 17.89 20.25 23.95 14.19 30 20.25 31.61 21.86 35.23 25.64 37.79 23.07 34.99 20.16"/><path class="cls-4" d="M71.81,32a2.58,2.58,0,0,1-2.68-2.77V28H55.27a2.59,2.59,0,0,1-2.69-2.78V9A2.69,2.69,0,1,1,58,9V23.18h7.94V9a2.68,2.68,0,1,1,5.36,0V23.18h.56A2.59,2.59,0,0,1,74.49,26v3.23A2.58,2.58,0,0,1,71.81,32Z"/><path class="cls-4" d="M68.57,6.5A2.33,2.33,0,0,1,71,9v14.4h.81A2.34,2.34,0,0,1,74.24,26v3.23a2.43,2.43,0,1,1-4.86,0V27.71H55.27a2.34,2.34,0,0,1-2.44-2.53V9A2.44,2.44,0,1,1,57.7,9v14.4h8.44V9A2.33,2.33,0,0,1,68.57,6.5m0-.5a2.82,2.82,0,0,0-2.93,3v13.9H58.2V9a2.94,2.94,0,1,0-5.87,0V25.18a2.85,2.85,0,0,0,2.94,3H68.88v1a2.93,2.93,0,1,0,5.86,0V26a2.85,2.85,0,0,0-2.93-3H71.5V9a2.82,2.82,0,0,0-2.93-3Z"/><path class="cls-4" d="M79,28a2.62,2.62,0,0,1-2.74-2.68v-17C76.25,6.37,77.36,6,79,6h8a2.41,2.41,0,0,1,2.56,2.48A2.44,2.44,0,0,1,87.06,11H81.61v3.17h5.07a2.44,2.44,0,0,1,2.61,2.48,2.47,2.47,0,0,1-2.61,2.49H81.61V23h5.75a2.41,2.41,0,0,1,2.55,2.48A2.44,2.44,0,0,1,87.36,28Z"/><path class="cls-4" d="M87.06,6.23a2.16,2.16,0,0,1,2.31,2.23,2.2,2.2,0,0,1-2.31,2.24h-5.7v3.67h5.32A2.19,2.19,0,0,1,89,16.6a2.23,2.23,0,0,1-2.36,2.24H81.36v4.41h6a2.16,2.16,0,0,1,2.3,2.23,2.2,2.2,0,0,1-2.3,2.24H79a2.36,2.36,0,0,1-2.49-2.43v-17c0-1.62.81-2.06,2.53-2.06h8m0-.5H79c-1.5,0-3,.3-3,2.56v17a2.86,2.86,0,0,0,3,2.93h8.37a2.69,2.69,0,0,0,2.8-2.74,2.65,2.65,0,0,0-2.8-2.73h-5.5V19.34h4.82a2.74,2.74,0,0,0,2.86-2.74,2.68,2.68,0,0,0-2.86-2.73H81.86V11.2h5.2a2.69,2.69,0,0,0,2.81-2.74,2.65,2.65,0,0,0-2.81-2.73Z"/><path class="cls-4" d="M108,28a2.59,2.59,0,0,1-2.68-2.78V18.93H97.61v6.26a2.68,2.68,0,1,1-5.36,0V8.75a2.68,2.68,0,1,1,5.36,0V14h7.68V8.75a2.68,2.68,0,1,1,5.36,0V25.19A2.59,2.59,0,0,1,108,28Z"/><path class="cls-4" d="M108,6.23a2.32,2.32,0,0,1,2.43,2.52V25.19a2.43,2.43,0,1,1-4.86,0V18.68H97.36v6.51a2.43,2.43,0,1,1-4.86,0V8.75a2.43,2.43,0,1,1,4.86,0v5.46h8.18V8.75A2.32,2.32,0,0,1,108,6.23m0-.5a2.82,2.82,0,0,0-2.93,3v5H97.86v-5a2.93,2.93,0,1,0-5.86,0V25.19a2.93,2.93,0,1,0,5.86,0v-6H105v6a2.93,2.93,0,1,0,5.86,0V8.75a2.82,2.82,0,0,0-2.93-3Z"/><path class="cls-4" d="M120.42,28a2.58,2.58,0,0,1-2.68-2.78V11h-3.29A2.34,2.34,0,0,1,112,8.46,2.42,2.42,0,0,1,114.45,6h11.93a2.42,2.42,0,0,1,2.45,2.48A2.34,2.34,0,0,1,126.38,11H123.1V25.19A2.59,2.59,0,0,1,120.42,28Z"/><path class="cls-4" d="M126.38,6.23a2.17,2.17,0,0,1,2.2,2.23,2.09,2.09,0,0,1-2.2,2.24h-3.53V25.19a2.43,2.43,0,1,1-4.86,0V10.7h-3.54a2.1,2.1,0,0,1-2.2-2.24,2.17,2.17,0,0,1,2.2-2.23h11.93m0-.5H114.45a2.66,2.66,0,0,0-2.7,2.73,2.59,2.59,0,0,0,2.7,2.74h3v14a2.93,2.93,0,1,0,5.86,0v-14h3a2.58,2.58,0,0,0,2.7-2.74,2.66,2.66,0,0,0-2.7-2.73Z"/><path class="cls-4" d="M132.89,28a2.59,2.59,0,0,1-2.68-2.78V8.75A2.58,2.58,0,0,1,133,6h5.74c5,0,8.54,3.28,8.54,8s-3.51,7.93-8.35,7.93h-3.35v3.29A2.58,2.58,0,0,1,132.89,28Zm5.74-10.85a3,3,0,0,0,3.09-3.18,3,3,0,0,0-3.09-3.19h-3.06v6.37Z"/><path class="cls-4" d="M138.73,6.23c4.76,0,8.29,3.11,8.29,7.74s-3.66,7.68-8.1,7.68h-3.6v3.54a2.43,2.43,0,1,1-4.86,0V8.75A2.33,2.33,0,0,1,133,6.23h5.74m-3.41,11.14h3.31A3.24,3.24,0,0,0,142,13.94a3.24,3.24,0,0,0-3.34-3.44h-3.31v6.87m3.41-11.64H133a2.83,2.83,0,0,0-3,3V25.19a2.93,2.93,0,1,0,5.86,0v-3h3.1c5,0,8.6-3.44,8.6-8.18s-3.61-8.24-8.79-8.24ZM135.82,11h2.81a2.74,2.74,0,0,1,2.84,2.94,2.73,2.73,0,0,1-2.84,2.93h-2.81V11Z"/><path class="cls-5" d="M56.89,38.14a2.51,2.51,0,0,1-.77,1.71,2.4,2.4,0,0,1-1.72.64,2.42,2.42,0,0,1-1.93-.82,3.18,3.18,0,0,1-.73-2.2,3.32,3.32,0,0,1,.72-2.17,2.42,2.42,0,0,1,2-.88,2.58,2.58,0,0,1,1.58.52,1.93,1.93,0,0,1,.79,1.36h-.55a1.66,1.66,0,0,0-.63-1,2,2,0,0,0-1.21-.38,1.91,1.91,0,0,0-1.55.7,3.25,3.25,0,0,0,0,3.72,1.89,1.89,0,0,0,1.54.7,1.76,1.76,0,0,0,1.34-.52,2.31,2.31,0,0,0,.6-1.36Z"/><path class="cls-5" d="M62.39,34.56V35H58.92v2.09h3.25v.47H58.92v2.3h3.5v.47H58.36v-5.8Z"/><path class="cls-5" d="M69.44,34.56v5.8h-.53v-3.5q0-.86.06-1.83c-.11.36-.24.71-.38,1l-1.71,4.28h-.5l-1.73-4.23c-.12-.29-.25-.64-.39-1.07,0,.64.07,1.23.07,1.78v3.52H63.8v-5.8h.75l1.69,4.14.4,1.09c0-.07.08-.23.17-.49s.15-.45.21-.59l1.66-4.15Z"/><path class="cls-5" d="M75.24,34.56V35H71.76v2.09H75v.47H71.76v2.3h3.51v.47H71.21v-5.8Z"/><path class="cls-5" d="M76.65,40.36v-5.8h.56v5.21l3.29-5.21h.72v5.8h-.55V35.15l-3.3,5.21Zm1.12-7.22h.32a.74.74,0,0,0,.26.49.89.89,0,0,0,.58.18.91.91,0,0,0,.58-.18.78.78,0,0,0,.28-.49h.32a1.12,1.12,0,0,1-1.19,1.06,1.1,1.1,0,0,1-.79-.27A1.24,1.24,0,0,1,77.77,33.14Z"/><path class="cls-5" d="M87.57,34.56v5.8H87v-2.8H83.55v2.8H83v-5.8h.55v2.52H87V34.56Z"/><path class="cls-5" d="M91.78,34.42a2.53,2.53,0,0,1,2,.85,3.16,3.16,0,0,1,.76,2.21,3.12,3.12,0,0,1-.75,2.18,2.56,2.56,0,0,1-2,.84,2.53,2.53,0,0,1-2-.84,3.58,3.58,0,0,1,0-4.4A2.52,2.52,0,0,1,91.78,34.42Zm0,.48a2,2,0,0,0-1.57.7,2.73,2.73,0,0,0-.6,1.84,2.83,2.83,0,0,0,.59,1.87,2.13,2.13,0,0,0,3.17,0,3.17,3.17,0,0,0,0-3.71A2,2,0,0,0,91.78,34.9Z"/><path class="cls-5" d="M96,40.36v-5.8h.55v5.21l3.3-5.21h.71v5.8H100V35.15l-3.29,5.21Zm1.11-7.22h.32a.79.79,0,0,0,.26.49,1,1,0,0,0,1.16,0,.79.79,0,0,0,.29-.49h.31a1.22,1.22,0,0,1-2,.79A1.35,1.35,0,0,1,97.12,33.14Z"/><path class="cls-5" d="M105.24,40.36v-5.8h.55v5.21l3.29-5.21h.72v5.8h-.55V35.15L106,40.36Z"/><path class="cls-5" d="M116.15,34.56v5.8h-.55V35h-3.47v5.33h-.55v-5.8Z"/><path class="cls-5" d="M120.37,34.42a2.49,2.49,0,0,1,2,.85,3.16,3.16,0,0,1,.77,2.21,3.13,3.13,0,0,1-.76,2.18,2.56,2.56,0,0,1-2,.84,2.51,2.51,0,0,1-2-.84,3.6,3.6,0,0,1,0-4.4A2.53,2.53,0,0,1,120.37,34.42Zm0,.48a2,2,0,0,0-1.57.7,2.73,2.73,0,0,0-.6,1.84,2.78,2.78,0,0,0,.6,1.87,2.12,2.12,0,0,0,3.16,0,3.17,3.17,0,0,0,0-3.71A2,2,0,0,0,120.36,34.9Z"/><path class="cls-5" d="M128.58,34.56V35h-2v5.33H126V35h-2v-.47Z"/><path class="cls-5" d="M133.76,34.56V35h-3.47v2.09h3.25v.47h-3.25v2.3h3.5v.47h-4.06v-5.8Z"/><path class="cls-5" d="M139.83,34.56l-2.61,2.37L140,40.36h-.71l-2.43-3.06-1.11,1v2h-.55v-5.8h.55v3.12l3.38-3.12Z"/><path class="cls-5" d="M141.07,40.36v-5.8h.56v5.21l3.29-5.21h.72v5.8h-.56V35.15l-3.29,5.21Z"/></svg>