<svg width="16" height="16" viewBox="0 0 16 16" fill="none" xmlns="http://www.w3.org/2000/svg">
<g clip-path="url(#clip0)">
<path d="M5.50785 10.7547L5.63643 10.921L5.76501 10.7547L8.49228 7.22528L13.0377 1.3429L13.5623 0.664024L13.8996 0.445805L14.2248 0.235352H14.3637H14.5026L14.8014 0.428728L15.5078 1.3429L15.6688 1.5512L15.8182 1.93795V2.353V2.53275L15.6556 2.95365L15.487 3.39009L14.2351 5.01013L10.5988 9.71601L10.0533 10.4219L7.32603 13.9513L6.07418 15.5714L5.77534 15.7648H5.49752L5.19599 15.5697L2.30838 12.0663L1.94681 11.5984L0.513132 9.74302L0.344508 9.3066L0.181885 8.8857V8.70594V8.47065V8.09752L0.492267 7.69587L0.855903 7.22528L1.19868 6.78166L1.49753 6.58829H1.81825H2.00007H2.13896L2.43782 6.78166L2.78059 7.22528L4.78058 9.81352L5.32603 10.5194L5.50785 10.7547Z" fill="#71B02D" stroke="#71B02D"/>
</g>
<defs>
<clipPath id="clip0">
<rect width="16" height="16" fill="white"/>
</clipPath>
</defs>
</svg>
