<svg id="Слой_1" data-name="Слой 1" xmlns="http://www.w3.org/2000/svg" xmlns:xlink="http://www.w3.org/1999/xlink" viewBox="0 0 155 45"><defs><style>.cls-1{fill:url(#Безымянный_градиент_19);}.cls-2{fill:#ece851;}.cls-3{fill:#fff;}.cls-4{fill:#7eac5c;}</style><linearGradient id="Безымянный_градиент_19" x1="8.18" y1="10.74" x2="39.71" y2="34.26" gradientUnits="userSpaceOnUse"><stop offset="0" stop-color="#89bd5d"/><stop offset="1" stop-color="#78a652"/></linearGradient></defs><title>mobile</title><path class="cls-1" d="M43.61,22.5A19.67,19.67,0,0,1,4.39,24.6a20.79,20.79,0,0,1-.11-2.1,19.67,19.67,0,1,1,39.33,0Z"/><path class="cls-2" d="M24,35.23a7.65,7.65,0,0,1-7.64-7.64h3.13a4.51,4.51,0,0,0,9,0h3.14A7.65,7.65,0,0,1,24,35.23Z"/><polygon class="cls-3" points="34.99 20.16 34.99 12.07 31.36 12.07 31.36 16.47 26.51 11.63 26.52 11.62 26.54 11.6 23.97 9.04 23.96 9.05 23.95 9.06 23.94 9.05 23.92 9.04 21.36 11.6 21.37 11.62 21.38 11.63 14.26 18.75 10.1 23.07 12.67 25.64 16.28 21.86 17.89 20.25 23.95 14.19 30 20.25 31.61 21.86 35.23 25.64 37.79 23.07 34.99 20.16"/><path class="cls-4" d="M71.22,36.33a2.56,2.56,0,0,1-2.66-2.75V32.37H54.83a2.57,2.57,0,0,1-2.65-2.76v-16a2.66,2.66,0,1,1,5.31,0v14h7.86v-14a2.66,2.66,0,1,1,5.32,0v14h.55a2.56,2.56,0,0,1,2.65,2.75v3.2A2.56,2.56,0,0,1,71.22,36.33Z"/><path class="cls-4" d="M68,11.12a2.3,2.3,0,0,1,2.41,2.5V27.88h.8a2.31,2.31,0,0,1,2.4,2.5v3.2a2.41,2.41,0,1,1-4.81,0V32.12h-14a2.32,2.32,0,0,1-2.4-2.51v-16a2.41,2.41,0,1,1,4.81,0V27.88H65.6V13.62A2.3,2.3,0,0,1,68,11.12m0-.5a2.8,2.8,0,0,0-2.91,3V27.38H57.74V13.62a2.91,2.91,0,1,0-5.81,0v16a2.83,2.83,0,0,0,2.9,3H68.31v1a2.91,2.91,0,1,0,5.81,0v-3.2a2.83,2.83,0,0,0-2.9-3h-.3V13.62a2.8,2.8,0,0,0-2.91-3Z"/><path class="cls-4" d="M78.33,32.38a2.61,2.61,0,0,1-2.72-2.66V12.89c0-1.91,1.1-2.3,2.75-2.3h8a2.47,2.47,0,1,1,0,4.93h-5.4v3.13h5a2.47,2.47,0,1,1,0,4.93h-5v3.87h5.69a2.39,2.39,0,0,1,2.53,2.46,2.42,2.42,0,0,1-2.53,2.47Z"/><path class="cls-4" d="M86.32,10.84a2.14,2.14,0,0,1,2.28,2.22,2.17,2.17,0,0,1-2.28,2.21H80.67V18.9h5.27a2.17,2.17,0,0,1,2.34,2.22,2.2,2.2,0,0,1-2.34,2.21H80.67V27.7h5.94a2.14,2.14,0,0,1,2.28,2.21,2.18,2.18,0,0,1-2.28,2.22H78.33a2.35,2.35,0,0,1-2.47-2.41V12.89c0-1.6.8-2.05,2.5-2.05h8m0-.5h-8c-1.48,0-3,.3-3,2.55V29.72a2.85,2.85,0,0,0,3,2.91h8.28a2.66,2.66,0,0,0,2.78-2.72,2.63,2.63,0,0,0-2.78-2.71H81.17V23.83h4.77a2.72,2.72,0,0,0,2.84-2.71,2.66,2.66,0,0,0-2.84-2.72H81.17V15.77h5.15a2.65,2.65,0,0,0,2.78-2.71,2.63,2.63,0,0,0-2.78-2.72Z"/><path class="cls-4" d="M107,32.38a2.57,2.57,0,0,1-2.66-2.76V23.43h-7.6v6.19a2.66,2.66,0,1,1-5.32,0V13.35a2.66,2.66,0,1,1,5.32,0V18.5h7.6V13.35a2.66,2.66,0,1,1,5.31,0V29.62A2.57,2.57,0,0,1,107,32.38Z"/><path class="cls-4" d="M107,10.84a2.3,2.3,0,0,1,2.4,2.51V29.62a2.41,2.41,0,1,1-4.81,0V23.18h-8.1v6.44a2.41,2.41,0,1,1-4.82,0V13.35a2.41,2.41,0,1,1,4.82,0v5.4h8.1v-5.4A2.31,2.31,0,0,1,107,10.84m0-.5a2.8,2.8,0,0,0-2.91,3v4.9H97v-4.9a2.91,2.91,0,1,0-5.82,0V29.62a2.91,2.91,0,1,0,5.82,0V23.68h7.1v5.94a2.91,2.91,0,1,0,5.81,0V13.35a2.8,2.8,0,0,0-2.9-3Z"/><path class="cls-4" d="M119.35,32.38a2.57,2.57,0,0,1-2.66-2.76V15.52h-3.25A2.32,2.32,0,0,1,111,13.06a2.4,2.4,0,0,1,2.43-2.47h11.81a2.41,2.41,0,0,1,2.44,2.47,2.33,2.33,0,0,1-2.44,2.46H122v14.1A2.57,2.57,0,0,1,119.35,32.38Z"/><path class="cls-4" d="M125.25,10.84a2.16,2.16,0,0,1,2.19,2.22,2.08,2.08,0,0,1-2.19,2.21h-3.49V29.62a2.41,2.41,0,1,1-4.82,0V15.27h-3.5a2.07,2.07,0,0,1-2.18-2.21,2.15,2.15,0,0,1,2.18-2.22h11.81m0-.5H113.44a2.65,2.65,0,0,0-2.68,2.72,2.56,2.56,0,0,0,2.68,2.71h3V29.62a2.91,2.91,0,1,0,5.82,0V15.77h3a2.56,2.56,0,0,0,2.69-2.71,2.65,2.65,0,0,0-2.69-2.72Z"/><path class="cls-4" d="M131.7,32.38a2.57,2.57,0,0,1-2.65-2.76V13.35a2.56,2.56,0,0,1,2.75-2.76h5.68c5,0,8.47,3.26,8.47,7.92s-3.48,7.86-8.28,7.86h-3.31v3.25A2.57,2.57,0,0,1,131.7,32.38Zm5.68-10.75a3,3,0,0,0,3.06-3.15,3,3,0,0,0-3.06-3.15h-3v6.3Z"/><path class="cls-4" d="M137.48,10.84c4.72,0,8.22,3.08,8.22,7.67s-3.63,7.61-8,7.61h-3.56v3.5a2.41,2.41,0,1,1-4.81,0V13.35a2.31,2.31,0,0,1,2.5-2.51h5.68m-3.37,11h3.27a3.2,3.2,0,0,0,3.31-3.4,3.2,3.2,0,0,0-3.31-3.4h-3.27v6.8m3.37-11.54H131.8a2.82,2.82,0,0,0-3,3V29.62a2.91,2.91,0,1,0,5.81,0v-3h3.06c4.94,0,8.53-3.41,8.53-8.11s-3.59-8.17-8.72-8.17Zm-2.87,5.24h2.77a2.7,2.7,0,0,1,2.81,2.9,2.7,2.7,0,0,1-2.81,2.9h-2.77v-5.8Z"/></svg>