<svg width="129" height="39" viewBox="0 0 129 39" fill="none" xmlns="http://www.w3.org/2000/svg">
<path fill-rule="evenodd" clip-rule="evenodd" d="M8.7804 0L6.58393 4.98885H37.0221L39.2186 0H8.7804ZM5.48501 7.48214L3.28854 12.4698H33.7267L35.9232 7.48214H5.48501ZM2.19647 14.9643L0 19.952H30.4382L32.6333 14.9643H2.19647Z" fill="#009FDF"/>
<mask id="mask0" mask-type="alpha" maskUnits="userSpaceOnUse" x="45" y="7" width="84" height="32">
<path d="M45.6669 38.1379H128.988V7.57812H45.6669V38.1379Z" fill="white"/>
</mask>
<g mask="url(#mask0)">
<path fill-rule="evenodd" clip-rule="evenodd" d="M64.7096 21.8532V21.9585C66.1006 22.3818 67.4294 23.1221 68.1256 23.5975C70.2765 25.0781 71.226 27.0341 71.226 29.572C71.226 33.75 68.5685 36.7633 64.203 37.7153C62.8743 38.0322 61.4832 38.1386 58.888 38.1386H45.6669V7.57812H57.371C59.7752 7.57812 61.4195 7.68339 62.8743 8.00033C67.1138 8.95231 69.8973 11.3849 69.8973 15.2437C69.8973 17.3061 69.0114 19.0516 67.5567 20.2141C66.9242 20.7427 66.0383 21.3778 64.7096 21.8532ZM53.0055 25.0781V33.115H58.0672C59.5842 33.115 60.9766 33.0097 61.9898 32.2162C63.0016 31.4227 63.4445 30.4187 63.4445 29.0966C63.4445 28.0925 63.1275 27.1405 62.495 26.4535C61.4195 25.343 60.0908 25.0781 57.8139 25.0781H53.0055ZM52.9418 19.7908H57.054C58.3191 19.7908 58.9517 19.7908 59.5842 19.6323C61.2936 19.2089 62.369 17.9412 62.369 16.1957C62.369 14.1344 61.2299 13.2345 59.5842 12.8123C58.888 12.6538 58.1932 12.6006 56.8008 12.6006H52.9418V19.7908ZM82.2339 38.1386V12.7059H71.6689V7.57812H101.025L98.9374 12.7059H89.5725V38.1386H82.2339ZM103.301 38.1386V7.57812H127.09L125.003 12.7059H110.578V19.4738H116.462C121.206 19.4738 123.674 20.4258 125.382 21.6415C126.711 22.5935 128.988 24.708 128.988 28.886C128.988 33.0097 126.647 35.2827 124.686 36.4463C122.409 37.7673 120.005 38.1386 115.133 38.1386H103.301ZM110.578 33.0097H116.082C118.17 33.0097 119.435 32.5864 120.321 31.6344C120.763 31.159 121.396 30.3123 121.396 28.7264C121.396 27.1405 120.763 26.0301 119.498 25.2366C118.74 24.7612 117.727 24.4974 116.019 24.4974H110.578V33.0097Z" fill="#0A2973"/>
</g>
</svg>
